<svg xmlns="http://www.w3.org/2000/svg" viewBox="0 0 320 200" role="img" aria-labelledby="title desc">
  <title id="title">Technology finalist illustration</title>
  <desc id="desc">Stylized chip, waves, and nodes for a technology competition.</desc>
  <defs>
    <linearGradient id="bg" x1="0" y1="0" x2="1" y2="1">
      <stop offset="0%" stop-color="#10212a"/>
      <stop offset="100%" stop-color="#101827"/>
    </linearGradient>
  </defs>
  <rect width="320" height="200" rx="24" fill="url(#bg)"/>
  <rect x="114" y="58" width="92" height="84" rx="16" fill="#103944" stroke="#00d4b4" stroke-width="4"/>
  <rect x="134" y="78" width="52" height="44" rx="8" fill="#dffef8"/>
  <path d="M126 44v18M146 44v18M166 44v18M186 44v18M206 44v18M126 142v18M146 142v18M166 142v18M186 142v18M206 142v18" stroke="#00d4b4" stroke-width="4" stroke-linecap="round"/>
  <path d="M94 96c10-10 22-15 36-15M90 116c17-17 37-25 58-25M226 81c14 0 26 5 36 15M230 91c21 0 41 8 58 25" fill="none" stroke="#5ff3ff" stroke-width="4" stroke-linecap="round"/>
  <circle cx="84" cy="96" r="6" fill="#5ff3ff"/><circle cx="236" cy="81" r="6" fill="#5ff3ff"/>
</svg>