<svg xmlns="http://www.w3.org/2000/svg" viewBox="0 0 320 200" role="img" aria-labelledby="title desc">
  <title id="title">Competition award illustration</title>
  <desc id="desc">Stylized trophy and poster board illustration.</desc>
  <defs>
    <linearGradient id="bg" x1="0" y1="0" x2="1" y2="1">
      <stop offset="0%" stop-color="#231915"/>
      <stop offset="100%" stop-color="#161a24"/>
    </linearGradient>
    <linearGradient id="cup" x1="0" y1="0" x2="1" y2="1">
      <stop offset="0%" stop-color="#ffbd59"/>
      <stop offset="100%" stop-color="#ff8a00"/>
    </linearGradient>
  </defs>
  <rect width="320" height="200" rx="24" fill="url(#bg)"/>
  <rect x="62" y="48" width="102" height="88" rx="12" fill="#20293a" stroke="#44506a"/>
  <rect x="80" y="68" width="66" height="8" rx="4" fill="#ff8a00"/>
  <rect x="80" y="86" width="46" height="8" rx="4" fill="#6fd8ff"/>
  <rect x="80" y="104" width="54" height="8" rx="4" fill="#f7d26a"/>
  <path d="M220 58h30v22c0 18-12 31-30 33-18-2-30-15-30-33V58z" fill="url(#cup)"/>
  <path d="M250 64h10c10 0 16 8 16 16s-6 16-16 16h-6" fill="none" stroke="#ff8a00" stroke-width="6" stroke-linecap="round"/>
  <path d="M190 64h-10c-10 0-16 8-16 16s6 16 16 16h6" fill="none" stroke="#ff8a00" stroke-width="6" stroke-linecap="round"/>
  <rect x="212" y="112" width="16" height="24" rx="4" fill="#ff8a00"/>
  <rect x="196" y="136" width="48" height="12" rx="6" fill="#ffbd59"/>
</svg>