<svg width="640" height="360" viewBox="0 0 640 360" fill="none" xmlns="http://www.w3.org/2000/svg">
  <defs>
    <linearGradient id="g" x1="0" y1="0" x2="640" y2="360" gradientUnits="userSpaceOnUse">
      <stop stop-color="#13243B"/>
      <stop offset="1" stop-color="#1D3352"/>
    </linearGradient>
  </defs>
  <rect width="640" height="360" rx="18" fill="url(#g)"/>
  <rect x="22" y="26" width="596" height="308" rx="14" fill="#0F1C2F" stroke="#335A86"/>
  <rect x="48" y="52" width="544" height="38" rx="10" fill="#152B45"/>
  <circle cx="74" cy="71" r="6" fill="#00D4B4"/>
  <circle cx="94" cy="71" r="6" fill="#FF8A00"/>
  <circle cx="114" cy="71" r="6" fill="#87A3C8"/>
  <rect x="48" y="108" width="254" height="198" rx="12" fill="#14263F"/>
  <rect x="328" y="108" width="264" height="92" rx="12" fill="#152A45"/>
  <rect x="328" y="214" width="264" height="92" rx="12" fill="#152A45"/>
  <rect x="66" y="132" width="218" height="20" rx="10" fill="#30547D"/>
  <rect x="66" y="164" width="180" height="14" rx="7" fill="#3A638E"/>
  <rect x="66" y="190" width="202" height="14" rx="7" fill="#456F9B"/>
  <rect x="66" y="216" width="146" height="14" rx="7" fill="#00D4B4" fill-opacity="0.85"/>
  <rect x="348" y="130" width="224" height="14" rx="7" fill="#32567F"/>
  <rect x="348" y="156" width="178" height="14" rx="7" fill="#3E6793"/>
  <rect x="348" y="236" width="224" height="14" rx="7" fill="#32567F"/>
  <rect x="348" y="262" width="198" height="14" rx="7" fill="#FF8A00" fill-opacity="0.9"/>
</svg>
