<svg width="640" height="360" viewBox="0 0 640 360" fill="none" xmlns="http://www.w3.org/2000/svg">
  <rect width="640" height="360" rx="18" fill="#0F1E32"/>
  <rect x="24" y="28" width="592" height="304" rx="14" fill="#101D2F" stroke="#2A466D"/>
  <rect x="52" y="68" width="160" height="12" rx="6" fill="#335A86"/>
  <rect x="52" y="94" width="124" height="12" rx="6" fill="#2A4A70"/>
  <rect x="52" y="120" width="104" height="12" rx="6" fill="#234161"/>
  <rect x="248" y="60" width="340" height="236" rx="12" fill="#12253C"/>
  <rect x="280" y="246" width="30" height="34" rx="6" fill="#FF8A00"/>
  <rect x="322" y="222" width="30" height="58" rx="6" fill="#00D4B4"/>
  <rect x="364" y="192" width="30" height="88" rx="6" fill="#FF8A00"/>
  <rect x="406" y="168" width="30" height="112" rx="6" fill="#00D4B4"/>
  <rect x="448" y="214" width="30" height="66" rx="6" fill="#FF8A00"/>
  <rect x="490" y="180" width="30" height="100" rx="6" fill="#00D4B4"/>
</svg>
